<svg xmlns="http://www.w3.org/2000/svg" version="1.1" xmlns:xlink="http://www.w3.org/1999/xlink" xmlns:svgjs="http://svgjs.com/svgjs" width="192" height="192"><svg width="192" height="192" viewBox="0 0 192 192" fill="none" xmlns="http://www.w3.org/2000/svg">
<rect width="192" height="192" fill="#0C0C0C"></rect>
<path d="M24 96.1561V18H31.2913L34.3846 30.2468V96.1561H24ZM77.0276 95.975L29.9656 32.0445L31.2913 18L78.4638 81.8182L77.0276 95.975ZM77.0276 95.975L73.9344 84.4024V18H84.3189V95.975H77.0276Z" fill="white"></path>
<path d="M30.9599 140.068V131.192H60.3929C64.8855 131.192 68.347 130.031 70.7775 127.709C73.2079 125.387 74.4231 122.241 74.4231 118.271C74.4231 114.526 73.2079 111.418 70.7775 108.946C68.4207 106.474 64.996 105.238 60.5034 105.238H30.9599V96.025H60.8348C65.6957 96.025 69.9305 96.9987 73.5393 98.9462C77.1482 100.819 79.91 103.403 81.8249 106.699C83.8134 109.995 84.8077 113.777 84.8077 118.047C84.8077 122.466 83.8134 126.324 81.8249 129.619C79.91 132.915 77.1482 135.499 73.5393 137.372C69.9305 139.17 65.6957 140.068 60.8348 140.068H30.9599ZM24 174V96.025H34.3846V174H24ZM76.8536 174L49.0141 139.057L58.8463 135.574L90 174H76.8536Z" fill="white"></path>
</svg><style>@media (prefers-color-scheme: light) { :root { filter: none; } }
</style></svg>