<svg width="265" height="110" viewBox="0 0 265 110" fill="none" xmlns="http://www.w3.org/2000/svg">
<path d="M0 55.0001V0.565186H5.15422L7.34086 9.09495V55.0001H0ZM37.4852 54.874L4.21709 10.347L5.15422 0.565186L38.5005 45.0139L37.4852 54.874ZM37.4852 54.874L35.2986 46.8137V0.565186H42.6395V54.874H37.4852Z" fill="white"/>
<path d="M54.2724 54.874V17.703H61.3009V54.874H54.2724ZM57.7867 10.2688C56.4851 10.2688 55.4178 9.85141 54.5848 9.0167C53.7518 8.12981 53.3353 7.03424 53.3353 5.73C53.3353 4.47792 53.7518 3.43452 54.5848 2.59981C55.4178 1.71292 56.4851 1.26947 57.7867 1.26947C59.0883 1.26947 60.1556 1.71292 60.9886 2.59981C61.8216 3.43452 62.2381 4.47792 62.2381 5.73C62.2381 7.03424 61.8216 8.12981 60.9886 9.0167C60.1556 9.85141 59.0883 10.2688 57.7867 10.2688Z" fill="white"/>
<path d="M88.6052 55.6565C84.9608 55.6565 81.6549 54.7957 78.6873 53.0741C75.7718 51.3525 73.455 49.0309 71.7369 46.1094C70.0709 43.1358 69.2379 39.8491 69.2379 36.2493C69.2379 32.5975 70.0709 29.3108 71.7369 26.3892C73.455 23.4677 75.7718 21.1723 78.6873 19.5028C81.6549 17.7812 84.9608 16.9204 88.6052 16.9204C91.4687 16.9204 94.1239 17.4682 96.5709 18.5638C99.0178 19.6072 101.126 21.1462 102.896 23.1808L98.2108 27.8761C97.0655 26.5197 95.6598 25.5024 93.9938 24.8242C92.3798 24.0938 90.5836 23.7286 88.6052 23.7286C86.2624 23.7286 84.1799 24.2764 82.3577 25.3719C80.5355 26.4153 79.1038 27.8761 78.0625 29.7542C77.0213 31.6323 76.5006 33.7974 76.5006 36.2493C76.5006 38.7013 77.0213 40.8664 78.0625 42.7445C79.1038 44.6226 80.5355 46.1094 82.3577 47.205C84.1799 48.3006 86.2624 48.8484 88.6052 48.8484C90.5836 48.8484 92.3798 48.5093 93.9938 47.831C95.6598 47.1007 97.0915 46.0573 98.2889 44.7009L102.896 49.3961C101.178 51.3786 99.0699 52.9176 96.5709 54.0132C94.1239 55.1087 91.4687 55.6565 88.6052 55.6565Z" fill="white"/>
<path d="M126.051 55.6565C122.406 55.6565 119.126 54.7957 116.211 53.0741C113.295 51.3525 110.979 49.0309 109.261 46.1094C107.542 43.1358 106.683 39.823 106.683 36.1711C106.683 32.5714 107.542 29.3368 109.261 26.4675C110.979 23.546 113.295 21.2244 116.211 19.5028C119.126 17.7812 122.406 16.9204 126.051 16.9204C129.643 16.9204 132.897 17.7812 135.813 19.5028C138.78 21.1723 141.123 23.4677 142.841 26.3892C144.559 29.3108 145.418 32.5714 145.418 36.1711C145.418 39.823 144.559 43.1358 142.841 46.1094C141.123 49.0309 138.78 51.3525 135.813 53.0741C132.897 54.7957 129.643 55.6565 126.051 55.6565ZM126.051 48.8484C128.394 48.8484 130.476 48.3006 132.298 47.205C134.121 46.1094 135.552 44.6226 136.594 42.7445C137.635 40.8142 138.155 38.6231 138.155 36.1711C138.155 33.7713 137.609 31.6323 136.515 29.7542C135.474 27.8761 134.042 26.4153 132.22 25.3719C130.45 24.2764 128.394 23.7286 126.051 23.7286C123.708 23.7286 121.625 24.2764 119.803 25.3719C117.981 26.4153 116.549 27.8761 115.508 29.7542C114.467 31.6323 113.946 33.7713 113.946 36.1711C113.946 38.6231 114.467 40.8142 115.508 42.7445C116.549 44.6226 117.981 46.1094 119.803 47.205C121.625 48.3006 123.708 48.8484 126.051 48.8484Z" fill="white"/>
<path d="M153.337 54.874V0.565098H160.366V54.874H153.337Z" fill="white"/>
<path d="M186.424 55.6565C183.04 55.6565 179.969 54.8218 177.209 53.1524C174.45 51.4308 172.263 49.1092 170.649 46.1877C169.087 43.2662 168.307 39.9795 168.307 36.3276C168.307 32.6757 169.087 29.389 170.649 26.4675C172.263 23.546 174.424 21.2244 177.131 19.5028C179.891 17.7812 182.988 16.9204 186.424 16.9204C189.236 16.9204 191.735 17.5204 193.921 18.7203C196.16 19.868 197.956 21.4853 199.31 23.5721C200.664 25.6067 201.418 27.9804 201.575 30.6933V41.8837C201.418 44.5443 200.664 46.9181 199.31 49.0049C198.008 51.0917 196.238 52.735 194 53.9349C191.813 55.0826 189.288 55.6565 186.424 55.6565ZM187.596 49.0049C191.084 49.0049 193.895 47.831 196.03 45.4834C198.165 43.0836 199.232 40.0317 199.232 36.3276C199.232 33.7713 198.737 31.5541 197.748 29.6759C196.811 27.7457 195.457 26.2588 193.687 25.2154C191.917 24.1199 189.861 23.5721 187.518 23.5721C185.175 23.5721 183.092 24.1199 181.27 25.2154C179.5 26.311 178.094 27.8239 177.053 29.7542C176.064 31.6323 175.569 33.7974 175.569 36.2493C175.569 38.7535 176.064 40.9707 177.053 42.901C178.094 44.7791 179.526 46.2659 181.348 47.3615C183.17 48.4571 185.253 49.0049 187.596 49.0049ZM198.763 54.874V44.8574L200.091 35.7798L198.763 26.7805V17.703H205.87V54.874H198.763Z" fill="white"/>
<path d="M227.895 55.6565C225.812 55.6565 223.834 55.3957 221.96 54.874C220.137 54.3001 218.445 53.5176 216.884 52.5263C215.322 51.4829 213.968 50.2569 212.823 48.8484L217.352 44.3096C218.706 45.979 220.268 47.2311 222.038 48.0658C223.808 48.8484 225.786 49.2396 227.973 49.2396C230.16 49.2396 231.852 48.8744 233.049 48.1441C234.247 47.3615 234.845 46.292 234.845 44.9356C234.845 43.5792 234.351 42.5358 233.361 41.8054C232.424 41.0229 231.201 40.3968 229.691 39.9273C228.181 39.4056 226.567 38.91 224.849 38.4405C223.183 37.9188 221.595 37.2667 220.085 36.4841C218.576 35.7016 217.326 34.6321 216.337 33.2757C215.4 31.9192 214.931 30.1194 214.931 27.8761C214.931 25.6328 215.478 23.7025 216.571 22.0852C217.665 20.4158 219.174 19.1376 221.101 18.2508C223.079 17.3639 225.448 16.9204 228.207 16.9204C231.123 16.9204 233.7 17.4421 235.939 18.4855C238.229 19.4767 240.104 20.9897 241.561 23.0243L237.032 27.5631C235.991 26.2067 234.689 25.1633 233.127 24.4329C231.617 23.7025 229.899 23.3373 227.973 23.3373C225.943 23.3373 224.381 23.7025 223.287 24.4329C222.246 25.1111 221.725 26.0762 221.725 27.3283C221.725 28.5804 222.194 29.5455 223.131 30.2237C224.068 30.9019 225.292 31.4758 226.802 31.9453C228.363 32.4149 229.977 32.9105 231.643 33.4322C233.309 33.9017 234.897 34.5538 236.407 35.3885C237.917 36.2233 239.14 37.3449 240.078 38.7535C241.067 40.1621 241.561 42.0141 241.561 44.3096C241.561 47.805 240.312 50.57 237.813 52.6046C235.366 54.6392 232.06 55.6565 227.895 55.6565Z" fill="white"/>
<path d="M4.91994 85.5846V79.4025H19.6017C22.7775 79.4025 25.2244 78.5938 26.9425 76.9766C28.6606 75.3593 29.5196 73.1682 29.5196 70.4032C29.5196 67.7947 28.6606 65.6296 26.9425 63.908C25.2765 62.1864 22.8556 61.3256 19.6798 61.3256H4.91994V54.9087H19.914C23.3502 54.9087 26.3438 55.587 28.8949 56.9434C31.446 58.2476 33.3983 60.0475 34.7519 62.3429C36.1576 64.6384 36.8605 67.273 36.8605 70.2467C36.8605 73.3247 36.1576 76.0114 34.7519 78.3069C33.3983 80.6024 31.446 82.4023 28.8949 83.7065C26.3438 84.9586 23.3502 85.5846 19.914 85.5846H4.91994ZM0 109.218V54.9087H7.34086V109.218H0ZM31.2377 109.218L11.5579 84.8803L18.5083 82.4544L40.5309 109.218H31.2377Z" fill="white"/>
<path d="M62.5992 110C58.9548 110 55.6749 109.139 52.7594 107.418C49.8439 105.696 47.5271 103.375 45.809 100.453C44.0909 97.4793 43.2319 94.1665 43.2319 90.5146C43.2319 86.9149 44.0909 83.6804 45.809 80.8111C47.5271 77.8896 49.8439 75.568 52.7594 73.8464C55.6749 72.1248 58.9548 71.264 62.5992 71.264C66.1916 71.264 69.4455 72.1248 72.361 73.8464C75.3286 75.5158 77.6715 77.8113 79.3895 80.7328C81.1076 83.6543 81.9666 86.9149 81.9666 90.5146C81.9666 94.1665 81.1076 97.4793 79.3895 100.453C77.6715 103.375 75.3286 105.696 72.361 107.418C69.4455 109.139 66.1916 110 62.5992 110ZM62.5992 103.192C64.9421 103.192 67.0246 102.644 68.8468 101.549C70.669 100.453 72.1007 98.9662 73.142 97.088C74.1832 95.1578 74.7039 92.9666 74.7039 90.5146C74.7039 88.1148 74.1572 85.9759 73.0639 84.0978C72.0226 82.2197 70.5909 80.7589 68.7687 79.7155C66.9986 78.6199 64.9421 78.0721 62.5992 78.0721C60.2564 78.0721 58.1739 78.6199 56.3517 79.7155C54.5295 80.7589 53.0978 82.2197 52.0565 84.0978C51.0153 85.9759 50.4946 88.1148 50.4946 90.5146C50.4946 92.9666 51.0153 95.1578 52.0565 97.088C53.0978 98.9662 54.5295 100.453 56.3517 101.549C58.1739 102.644 60.2564 103.192 62.5992 103.192Z" fill="white"/>
<path d="M89.8859 109.218V72.0465H96.9144V109.218H89.8859ZM114.954 109.218V86.7584C114.954 83.9934 114.095 81.8284 112.377 80.2633C110.711 78.646 108.602 77.8374 106.051 77.8374C104.333 77.8374 102.797 78.2026 101.444 78.933C100.09 79.6633 98.9969 80.6806 98.1639 81.9849C97.3309 83.2891 96.9144 84.8542 96.9144 86.6802L94.0249 85.2716C94.0249 82.4544 94.6236 80.0024 95.821 77.9156C97.0705 75.8288 98.7626 74.2116 100.897 73.0638C103.032 71.8639 105.427 71.264 108.082 71.264C110.685 71.264 113.028 71.8378 115.11 72.9856C117.245 74.1333 118.911 75.7506 120.108 77.8374C121.358 79.9242 121.983 82.4022 121.983 85.2716V109.218H114.954ZM140.022 109.218V86.7584C140.022 83.9934 139.163 81.8284 137.445 80.2633C135.779 78.646 133.697 77.8374 131.198 77.8374C129.48 77.8374 127.918 78.2026 126.512 78.933C125.158 79.6633 124.065 80.6806 123.232 81.9849C122.399 83.2891 121.983 84.8542 121.983 86.6802L118 85.2716C118.156 82.4022 118.911 79.9503 120.265 77.9156C121.67 75.8288 123.466 74.2116 125.653 73.0638C127.84 71.8639 130.235 71.264 132.838 71.264C135.545 71.264 137.966 71.8378 140.1 72.9856C142.235 74.1333 143.927 75.7506 145.177 77.8374C146.478 79.9242 147.129 82.4283 147.129 85.3498V109.218H140.022Z" fill="white"/>
<path d="M173.874 110C170.177 110 166.845 109.165 163.878 107.496C160.91 105.774 158.567 103.453 156.849 100.531C155.131 97.6097 154.272 94.297 154.272 90.5929C154.272 86.941 155.105 83.6543 156.771 80.7328C158.489 77.8113 160.78 75.5158 163.643 73.8464C166.559 72.1248 169.813 71.264 173.405 71.264C176.841 71.264 179.861 72.0465 182.464 73.6116C185.119 75.1767 187.176 77.3418 188.634 80.1068C190.143 82.8718 190.898 86.002 190.898 89.4973C190.898 90.019 190.872 90.5929 190.82 91.2189C190.768 91.7928 190.664 92.471 190.508 93.2536H159.192V87.3845H186.759L184.182 89.6539C184.182 87.1497 183.74 85.0368 182.855 83.3152C181.97 81.5414 180.72 80.185 179.106 79.246C177.492 78.2547 175.54 77.7591 173.249 77.7591C170.854 77.7591 168.746 78.2808 166.923 79.3242C165.101 80.3676 163.696 81.8284 162.706 83.7065C161.717 85.5846 161.223 87.8018 161.223 90.3581C161.223 92.9666 161.743 95.2621 162.784 97.2446C163.826 99.1749 165.309 100.688 167.236 101.783C169.162 102.827 171.375 103.348 173.874 103.348C175.956 103.348 177.857 102.983 179.575 102.253C181.345 101.522 182.855 100.427 184.104 98.9662L188.634 103.583C186.863 105.67 184.677 107.261 182.074 108.357C179.523 109.452 176.789 110 173.874 110Z" fill="white"/>
<path d="M198.562 109.218V72.0465H205.59V109.218H198.562ZM205.59 88.0105L202.935 86.8367C202.935 82.0892 204.029 78.3069 206.215 75.4897C208.402 72.6726 211.552 71.264 215.665 71.264C217.539 71.264 219.231 71.6031 220.741 72.2813C222.251 72.9073 223.656 73.9768 224.958 75.4897L220.35 80.2633C219.569 79.4286 218.71 78.8286 217.773 78.4634C216.836 78.0982 215.743 77.9156 214.493 77.9156C211.89 77.9156 209.755 78.7504 208.089 80.4198C206.423 82.0892 205.59 84.6195 205.59 88.0105Z" fill="white"/>
<path d="M245.633 110C241.988 110 238.708 109.139 235.793 107.418C232.877 105.696 230.56 103.375 228.842 100.453C227.124 97.4793 226.265 94.1665 226.265 90.5146C226.265 86.9149 227.124 83.6804 228.842 80.8111C230.56 77.8896 232.877 75.568 235.793 73.8464C238.708 72.1248 241.988 71.264 245.633 71.264C249.225 71.264 252.479 72.1248 255.394 73.8464C258.362 75.5158 260.705 77.8113 262.423 80.7328C264.141 83.6543 265 86.9149 265 90.5146C265 94.1665 264.141 97.4793 262.423 100.453C260.705 103.375 258.362 105.696 255.394 107.418C252.479 109.139 249.225 110 245.633 110ZM245.633 103.192C247.975 103.192 250.058 102.644 251.88 101.549C253.702 100.453 255.134 98.9662 256.175 97.088C257.217 95.1578 257.737 92.9666 257.737 90.5146C257.737 88.1148 257.191 85.9759 256.097 84.0978C255.056 82.2197 253.624 80.7589 251.802 79.7155C250.032 78.6199 247.975 78.0721 245.633 78.0721C243.29 78.0721 241.207 78.6199 239.385 79.7155C237.563 80.7589 236.131 82.2197 235.09 84.0978C234.049 85.9759 233.528 88.1148 233.528 90.5146C233.528 92.9666 234.049 95.1578 235.09 97.088C236.131 98.9662 237.563 100.453 239.385 101.549C241.207 102.644 243.29 103.192 245.633 103.192Z" fill="white"/>
<rect x="193.045" y="1" width="4" height="12.5642" transform="rotate(46.047 193.045 1)" fill="white"/>
</svg>
